<?xml version="1.0" encoding="UTF-8"?>
<svg width="24px" height="24px" viewBox="0 0 24 24" version="1.1" xmlns="http://www.w3.org/2000/svg" xmlns:xlink="http://www.w3.org/1999/xlink">
    <title>nav-audio-portal</title>
    <g id="nav-audio-portal" stroke="none" stroke-width="1" fill="none" fill-rule="evenodd">
        <path id="headphones" fill="#000000" d="M17.0843117,11.5096824 L17.273323,11.5101973 L17.6403399,11.5112869 C18.5137621,11.5142103 18.5842912,11.5211709 18.7980733,11.6256219 L18.8868045,11.6695433 C19.2203182,11.8338547 19.4644051,12.1364728 19.5653585,12.5111514 C19.5868123,12.5905385 19.5945078,12.7262088 19.5972259,13.8949019 L19.5978068,14.2091617 C19.5978881,14.2653137 19.5979619,14.3234003 19.598029,14.3834924 L19.5989667,17.4975359 C19.5990213,17.7146614 19.5990352,17.9129708 19.5989402,18.0942332 L19.5982596,18.5886488 C19.5946991,19.9787335 19.5756844,20.0379515 19.4856085,20.2046956 L19.4651986,20.2425965 C19.4580192,20.2561282 19.450457,20.2707327 19.4424917,20.2869342 C19.320765,20.5344399 19.1197448,20.7395124 18.8865512,20.8540186 C18.6450562,20.9726209 18.6268094,20.9949368 17.951905,20.9990654 L16.7083185,20.9997955 C15.8579717,20.9980235 15.8643132,20.9817488 15.5838413,20.8435053 C15.4371612,20.7711789 15.3745878,20.7257058 15.2489343,20.6003063 C15.1212542,20.4727534 15.0794541,20.414867 15.0078874,20.2666676 C14.9969734,20.2440444 14.986869,20.2243727 14.9775162,20.2059837 L14.9597954,20.1704219 C14.8955758,20.0368677 14.8732624,19.9133308 14.8667452,19.0478943 L14.8653862,18.8048044 C14.8652137,18.7613197 14.8650668,18.7163089 14.8649433,18.6697103 L14.8647862,17.6460982 C14.8648665,17.5782205 14.8649574,17.5083842 14.8650566,17.4365274 L14.8669073,16.1994169 L14.8670975,16.0608208 L14.8678499,15.4199805 C14.8679347,15.3401658 14.8680155,15.262549 14.8680951,15.1870651 L14.8688459,14.5635401 C14.8689411,14.5002675 14.869043,14.4389326 14.8691541,14.3794701 L14.8699527,14.0446439 C14.8739182,12.738818 14.8869627,12.5219046 14.9504087,12.3766558 L14.9666245,12.3426512 L14.9849028,12.3082736 C14.9978039,12.2845364 15.0121646,12.2584671 15.0281541,12.2258992 C15.1004808,12.0789664 15.1455742,12.01652 15.2709743,11.8906138 C15.3981478,11.7628076 15.4561612,11.7207798 15.604108,11.6491248 C15.7081014,11.5986863 15.8427482,11.5506545 15.9254616,11.5344285 C16.0116626,11.517495 16.1613501,11.510711 16.6273394,11.5095109 L17.0843117,11.5096824 Z M7.59276609,11.5096824 L7.78177498,11.5101973 L8.14881043,11.5112869 C9.02227158,11.5142103 9.09276175,11.5211709 9.30658279,11.6256219 L9.39533257,11.6695433 C9.72887156,11.8338547 9.9728698,12.1364728 10.0738866,12.5111514 C10.0952795,12.5905385 10.1029976,12.7262088 10.1057359,13.8949019 L10.1063218,14.2091617 L10.1065463,14.3834924 L10.1074291,17.2740728 L10.1074681,18.0942332 L10.1067874,18.5886488 C10.1032264,19.9787335 10.0842097,20.0379515 9.99412708,20.2046956 L9.97371564,20.2425965 C9.96653573,20.2561282 9.95897298,20.2707327 9.95100711,20.2869342 C9.82928032,20.5344399 9.62827279,20.7395124 9.39510457,20.8540186 C9.15358963,20.9726209 9.13531504,20.9949368 8.46039351,20.9990654 L7.21680736,20.9997955 C6.36647268,20.9980235 6.37277604,20.9817488 6.09229333,20.8435053 C5.94562585,20.7711789 5.88310312,20.7257058 5.75744967,20.6003063 C5.65529543,20.498264 5.60811256,20.4408082 5.55670287,20.3460295 L5.5164281,20.2666676 C5.50551502,20.2440444 5.49541091,20.2243727 5.48605794,20.2059837 L5.46833637,20.1704219 C5.4041114,20.0368677 5.3817698,19.9133308 5.37524603,19.0478943 L5.37388586,18.8048044 L5.37356488,17.4365274 L5.37543529,16.1994169 L5.37579566,15.9257658 L5.3763666,15.4199805 L5.37660888,15.1870651 L5.37735322,14.5635401 L5.37766,14.3794701 L5.37845671,14.0446439 C5.38241715,12.738818 5.39548873,12.5219046 5.45895651,12.3766558 L5.47517752,12.3426512 L5.49346057,12.3082736 C5.50636481,12.2845364 5.52072829,12.2584671 5.53672012,12.2258992 C5.60893285,12.0789664 5.65408956,12.01652 5.77947702,11.8906138 C5.90667581,11.7628076 5.96467654,11.7207798 6.11254735,11.6491248 C6.21662945,11.5986863 6.35122558,11.5506545 6.43398966,11.5344285 C6.52014419,11.517495 6.6698193,11.510711 7.13580034,11.5095109 L7.59276609,11.5096824 Z M16.1524485,12.7003906 L16.0583351,12.7946303 L16.0583351,19.7183297 L16.1515619,19.8116827 L18.319084,19.8116827 L18.4123107,19.7183297 L18.4120809,14.8303708 C18.4120467,14.7645532 18.4120074,14.7008587 18.4119625,14.6392176 L18.4111012,13.9936212 C18.4088477,12.9743536 18.4024182,12.8138555 18.3841231,12.7692728 L18.3788336,12.7594297 L18.3397307,12.7107773 L17.2460896,12.7055839 L16.1524485,12.7003906 Z M6.66096388,12.7003906 L6.56686313,12.7946303 L6.56686313,19.7183297 L6.61347651,19.7649429 L6.66005188,19.8116827 L8.82757401,19.8116827 L8.92076277,19.7183297 L8.92041737,14.6392176 L8.91956031,13.9936212 C8.91731623,12.9743536 8.91090568,12.8138555 8.89263902,12.7692728 L8.88735747,12.7594297 L8.84820803,12.7107773 L6.66096388,12.7003906 Z M11.7302449,2.0260679 C12.3158254,1.9764021 13.1535743,1.99921467 13.7708595,2.08163635 C16.3440954,2.42514233 18.6795777,3.83773612 20.2203525,5.98248569 C21.2112668,7.36185494 21.8541008,9.14319927 21.9536609,10.7853628 C21.9611342,10.907963 21.9745609,11.00371 21.9835542,10.998124 C21.9920567,10.992861 21.9972105,11.7431051 21.9991357,12.6852105 L21.999233,14.4178721 C21.9972825,15.4731984 21.9916253,16.3678196 21.9824142,16.3851095 C21.9727876,16.4032228 21.9465675,16.4581959 21.9242742,16.5073423 C21.9019808,16.5563622 21.8484008,16.6319819 21.8052074,16.675175 C21.6869006,16.7937346 21.5982339,16.8319877 21.4182404,16.8418677 C21.2805536,16.8494677 21.2514202,16.8448263 21.1524934,16.7995612 C20.9890933,16.7247015 20.8740798,16.6022153 20.8177131,16.4424893 C20.8016264,16.3967628 20.7927597,15.6361324 20.7846531,13.5947805 C20.7747731,11.1298695 20.7698331,10.7811575 20.741333,10.5624304 C20.5291661,8.9319581 19.9462456,7.53237294 18.971418,6.31329973 C17.5942966,4.59120982 15.6471747,3.51301473 13.4197265,3.23935247 C13.0270088,3.19110532 11.9521144,3.19110532 11.5593967,3.23935247 C9.32653983,3.51369872 7.39186927,4.58657384 5.9991679,6.32279969 C5.04119963,7.51704633 4.44687905,8.94501739 4.23856284,10.5529177 L4.23273309,10.6024392 C4.20803981,10.8365613 4.20353118,11.2650502 4.19435613,13.5947805 C4.18666746,15.5520261 4.17718012,16.3975228 4.16246144,16.4386893 C4.10454938,16.6006953 3.9885986,16.7253348 3.82662977,16.7995612 C3.72771568,16.8448263 3.69859498,16.8494677 3.56087018,16.8418677 C3.38095267,16.8319877 3.29228592,16.7937346 3.17386513,16.675175 C3.13068442,16.6319819 3.07559704,16.5563622 3.05146701,16.5073423 L3.00755164,16.4180427 L3.00145896,13.8134063 C3.00124933,13.7235493 3.00106208,13.6359234 3.00089736,13.5505032 L3.00079361,12.0721461 C3.0026775,11.4026349 3.0079367,11.025 3.01679831,10.8951317 C3.08851705,9.84522118 3.28620591,8.96233265 3.66814428,7.98633182 C3.87653649,7.45381458 4.19390013,6.83961032 4.53164446,6.31519972 C5.21401113,5.25570055 6.25122215,4.21692396 7.30910519,3.53352198 C8.66276785,2.65908208 10.1184733,2.16271537 11.7302449,2.0260679 Z"></path>
    </g>
</svg>
