<svg xmlns="http://www.w3.org/2000/svg" width="24" height="24" fill="none" viewBox="0 0 24 24"><path stroke="#4e4d47" stroke-linecap="round" stroke-linejoin="round" d="M22.522 4.5H1.478C1.214 4.5 1 4.74 1 5.037V18.463C1 18.76 1.214 19 1.478 19H22.522C22.786 19 23 18.76 23 18.463V5.037C23 4.74 22.786 4.5 22.522 4.5ZM12 19.25V21.75M6 22H18"/><path fill="#4e4d47" d="M9.93151 15.3351C9.69387 15.4794 9.5 15.3746 9.5 15.1027L9.50104 8.49729C9.50156 8.22489 9.69543 8.12059 9.93308 8.26489L15.3218 11.5387C15.5594 11.683 15.5594 11.919 15.3218 12.0633L9.93151 15.3351Z"/></svg>