<?xml version="1.0" encoding="utf-8"?>
<!-- Generator: Adobe Illustrator 16.0.0, SVG Export Plug-In . SVG Version: 6.00 Build 0)  -->
<!DOCTYPE svg PUBLIC "-//W3C//DTD SVG 1.1//EN" "http://www.w3.org/Graphics/SVG/1.1/DTD/svg11.dtd">
<svg version="1.1" id="Calque_1" xmlns="http://www.w3.org/2000/svg" xmlns:xlink="http://www.w3.org/1999/xlink" x="0px" y="0px"
	 width="69.2px" height="22.8px" viewBox="0 0 69.2 22.8" enable-background="new 0 0 69.2 22.8" xml:space="preserve">
<rect x="0" fill="#B10017" width="69.149" height="22.8"/>
<g>
	<path fill="#FFFFFF" d="M7.778,16.893c-0.702,0-1.351-0.049-1.944-0.146c-0.594-0.098-1.04-0.184-1.337-0.26
		c-0.297-0.075-0.457-0.119-0.478-0.13l0.389-1.977c0.616,0.162,1.183,0.278,1.702,0.349s0.988,0.105,1.409,0.105
		c0.703,0,1.194-0.087,1.475-0.26c0.281-0.173,0.422-0.502,0.422-0.988c0-0.422-0.116-0.713-0.348-0.875
		c-0.232-0.162-0.57-0.297-1.014-0.405l-1.183-0.275c-0.875-0.205-1.531-0.57-1.969-1.094S4.246,9.704,4.246,8.807
		c0-0.508,0.075-0.964,0.227-1.37C4.624,7.033,4.862,6.687,5.185,6.4C5.51,6.115,5.92,5.896,6.417,5.744
		C6.914,5.593,7.509,5.518,8.2,5.518c0.982,0,2.101,0.157,3.354,0.47l-0.34,1.896c-0.389-0.097-0.864-0.181-1.426-0.251
		c-0.562-0.07-1.08-0.105-1.557-0.105c-0.453,0-0.829,0.079-1.125,0.235C6.808,7.918,6.66,8.234,6.66,8.71
		c0,0.389,0.108,0.67,0.324,0.842C7.2,9.725,7.481,9.855,7.827,9.941l1.264,0.292c1.048,0.249,1.783,0.64,2.204,1.175
		c0.421,0.535,0.632,1.229,0.632,2.082c0,0.875-0.211,1.58-0.632,2.115c-0.421,0.534-0.959,0.88-1.612,1.037
		C9.028,16.798,8.393,16.882,7.778,16.893z"/>
	<path fill="#FFFFFF" d="M13.677,16.65V5.744h4.262c1.274,0,2.212,0.294,2.812,0.883c0.599,0.589,0.899,1.386,0.899,2.39
		c0,0.648-0.125,1.194-0.373,1.637s-0.554,0.759-0.916,0.948c-0.361,0.189-0.683,0.316-0.963,0.381l3.159,4.667H19.72l-2.835-4.392
		l0.404-1.701c0.605,0,1.062-0.108,1.369-0.324c0.309-0.216,0.462-0.594,0.462-1.134c0-0.432-0.116-0.759-0.349-0.98
		c-0.232-0.221-0.64-0.332-1.223-0.332h-1.41v8.864H13.677z"/>
	<path fill="#FFFFFF" d="M28.665,16.893c-0.863,0-1.614-0.101-2.252-0.3c-0.637-0.2-1.17-0.524-1.596-0.973
		c-0.428-0.448-0.746-1.034-0.956-1.758c-0.211-0.724-0.315-1.615-0.315-2.674c0-1.037,0.115-1.915,0.348-2.633
		c0.232-0.718,0.57-1.302,1.013-1.75s0.989-0.775,1.637-0.98c0.648-0.205,1.388-0.308,2.22-0.308c0.432,0,0.843,0.03,1.232,0.089
		c0.389,0.06,0.734,0.127,1.037,0.203c0.302,0.076,0.545,0.149,0.729,0.219c0.184,0.07,0.292,0.111,0.324,0.122l-0.422,1.928
		c-0.486-0.119-0.788-0.189-0.906-0.21c-0.119-0.021-0.376-0.062-0.771-0.122c-0.395-0.059-0.737-0.089-1.028-0.089
		c-0.477,0-0.892,0.052-1.248,0.154c-0.357,0.103-0.654,0.286-0.892,0.551s-0.416,0.624-0.534,1.078
		c-0.119,0.454-0.179,1.037-0.179,1.75s0.054,1.299,0.162,1.758c0.108,0.46,0.275,0.827,0.503,1.103
		c0.227,0.275,0.512,0.467,0.858,0.575c0.345,0.108,0.756,0.162,1.231,0.162c0.562,0,0.934-0.017,1.118-0.049v-2.365h-1.751v-1.978
		h4.101v6.125c-0.217,0.055-0.679,0.13-1.386,0.228C30.235,16.844,29.475,16.893,28.665,16.893z"/>
	<path fill="#FFFFFF" d="M40.754,16.893c-0.703,0-1.351-0.049-1.945-0.146c-0.594-0.098-1.039-0.184-1.337-0.26
		c-0.297-0.075-0.456-0.119-0.478-0.13l0.389-1.977c0.616,0.162,1.184,0.278,1.702,0.349s0.988,0.105,1.409,0.105
		c0.702,0,1.193-0.087,1.475-0.26s0.422-0.502,0.422-0.988c0-0.422-0.116-0.713-0.349-0.875s-0.57-0.297-1.013-0.405l-1.184-0.275
		c-0.875-0.205-1.531-0.57-1.969-1.094S37.22,9.704,37.22,8.807c0-0.508,0.076-0.964,0.228-1.37c0.15-0.405,0.389-0.75,0.713-1.037
		c0.324-0.286,0.734-0.505,1.231-0.656c0.496-0.151,1.091-0.227,1.782-0.227c0.983,0,2.101,0.157,3.354,0.47l-0.341,1.896
		c-0.389-0.097-0.864-0.181-1.426-0.251s-1.08-0.105-1.556-0.105c-0.453,0-0.829,0.079-1.126,0.235
		c-0.297,0.157-0.445,0.473-0.445,0.948c0,0.389,0.107,0.67,0.324,0.842c0.216,0.173,0.496,0.303,0.842,0.389l1.265,0.292
		c1.048,0.249,1.782,0.64,2.203,1.175c0.422,0.535,0.633,1.229,0.633,2.082c0,0.875-0.211,1.58-0.633,2.115
		c-0.421,0.534-0.958,0.88-1.612,1.037C42.004,16.798,41.369,16.882,40.754,16.893z"/>
	<path fill="#FFFFFF" d="M49.748,16.893c-0.703,0-1.351-0.049-1.945-0.146c-0.594-0.098-1.039-0.184-1.337-0.26
		c-0.297-0.075-0.456-0.119-0.478-0.13l0.389-1.977c0.616,0.162,1.184,0.278,1.702,0.349s0.988,0.105,1.409,0.105
		c0.702,0,1.193-0.087,1.475-0.26s0.422-0.502,0.422-0.988c0-0.422-0.116-0.713-0.349-0.875s-0.57-0.297-1.013-0.405l-1.184-0.275
		c-0.875-0.205-1.531-0.57-1.969-1.094s-0.656-1.234-0.656-2.131c0-0.508,0.076-0.964,0.228-1.37c0.15-0.405,0.389-0.75,0.713-1.037
		c0.324-0.286,0.734-0.505,1.231-0.656c0.496-0.151,1.091-0.227,1.782-0.227c0.983,0,2.101,0.157,3.354,0.47l-0.341,1.896
		c-0.389-0.097-0.864-0.181-1.426-0.251s-1.08-0.105-1.556-0.105c-0.453,0-0.829,0.079-1.126,0.235
		C48.778,7.918,48.63,8.234,48.63,8.71c0,0.389,0.107,0.67,0.324,0.842c0.216,0.173,0.496,0.303,0.842,0.389l1.265,0.292
		c1.048,0.249,1.782,0.64,2.203,1.175c0.422,0.535,0.633,1.229,0.633,2.082c0,0.875-0.211,1.58-0.633,2.115
		c-0.421,0.534-0.958,0.88-1.612,1.037C50.998,16.798,50.363,16.882,49.748,16.893z"/>
	<path fill="#FFFFFF" d="M55.645,16.65V5.744h4.262c1.275,0,2.212,0.294,2.812,0.883s0.899,1.386,0.899,2.39
		c0,0.648-0.124,1.194-0.372,1.637c-0.249,0.443-0.554,0.759-0.916,0.948c-0.362,0.189-0.684,0.316-0.964,0.381l3.159,4.667H61.69
		l-2.836-4.392l0.405-1.701c0.604,0,1.061-0.108,1.369-0.324c0.308-0.216,0.462-0.594,0.462-1.134c0-0.432-0.116-0.759-0.349-0.98
		c-0.232-0.221-0.641-0.332-1.224-0.332h-1.41v8.864H55.645z"/>
</g>
</svg>
